<svg width="643" height="314" viewBox="0 0 643 314" fill="none" xmlns="http://www.w3.org/2000/svg">
<g clip-path="url(#clip0_11_2)">
<path d="M560.67 10C584.43 10 608.19 12.82 631.42 18.4C626.86 57.69 615.68 95.37 598.14 130.54C576.37 174.2 546.39 211.06 509.05 240.11C491.17 254.02 471.75 265.93 451.32 275.51C434.3 283.49 416.53 289.88 398.36 294.57C388.4 232.14 362.82 173.58 323.87 124.15C337.33 107.48 352.43 92.26 368.84 78.82C386.87 64.05 406.57 51.36 427.38 41.1C468.67 20.76 514.77 10 560.67 10ZM560.67 0C464.86 0 372.45 44.26 311.08 124.22C353.17 175.3 381.21 238.64 390.02 306.84C480.29 287 561.17 227.08 607.08 135.01C626.89 95.29 638.38 53.18 642.25 10.85C615.21 3.56 587.79 0 560.67 0Z" fill="#ECC291"/>
<path d="M73.32 18.9C89.59 18.9 106.05 20.18 122.25 22.69C160.06 28.56 195.98 40.98 229.01 59.59C258.54 76.23 285.02 97.38 307.85 122.54C296.42 137.41 286.17 153.34 277.31 170C257.03 208.14 244.42 249.09 239.81 291.72C217.29 285.45 195.6 276.72 175.01 265.63C144.48 249.18 116.99 227.9 93.29 202.36C69.82 177.07 50.73 148.31 36.54 116.9C23.34 87.67 14.73 56.84 10.9 25.16C31.43 21.01 52.38 18.91 73.33 18.91M73.33 8.90999C48.28 8.90999 23.72 11.8 0.0100098 17.3C13.49 162.77 124.09 286.11 275.03 309.56C291.99 312.19 308.85 313.47 325.49 313.47C350.54 313.47 375.1 310.58 398.81 305.08C398.5 301.68 398.11 298.3 397.69 294.93C374.73 299.97 351.19 302.56 327.49 302.56C301.57 302.56 275.47 299.47 249.73 293.11C254.04 252.83 265.96 212.68 286.14 174.72C296.21 155.79 307.87 138.26 320.88 122.2C272.02 65.49 203.53 25.2 123.78 12.81C106.82 10.18 89.96 8.89999 73.32 8.89999L73.33 8.90999Z" fill="#ECC291"/>
</g>
<defs>
<clipPath id="clip0_11_2">
<rect width="642.25" height="313.46" fill="white"/>
</clipPath>
</defs>
</svg>
